/* XPM */
static char * text_x_lua_xpm[] = {
"32 32 107 2",
"  	c None",
". 	c #999999",
"+ 	c #9C9C9C",
"@ 	c #9E9E9E",
"# 	c #969696",
"$ 	c #939393",
"% 	c #8F8F8F",
"& 	c #8C8C8C",
"* 	c #888888",
"= 	c #848484",
"- 	c #818181",
"; 	c #7D7D7D",
"> 	c #7A7A7A",
", 	c #767676",
"' 	c #727272",
") 	c #6F6F6F",
"! 	c #6B6B6B",
"~ 	c #686868",
"{ 	c #646464",
"] 	c #FDFDFD",
"^ 	c #FEFEFE",
"/ 	c #FAFAFA",
"( 	c #FCFCFC",
"_ 	c #FBFBFB",
": 	c #F9F9F9",
"< 	c #F8F8F8",
"[ 	c #636363",
"} 	c #DCDCDC",
"| 	c #DDDDDD",
"1 	c #DADADA",
"2 	c #E5E5E5",
"3 	c #DFDFDF",
"4 	c #E0E0E0",
"5 	c #E1E1E1",
"6 	c #E2E2E2",
"7 	c #E3E3E3",
"8 	c #5D5D5D",
"9 	c #929292",
"0 	c #DEDEDE",
"a 	c #E6E6E6",
"b 	c #E4E4E4",
"c 	c #909090",
"d 	c #DBDBDB",
"e 	c #BDBDBD",
"f 	c #BBBBBB",
"g 	c #BCBCBC",
"h 	c #BFBFBF",
"i 	c #5C5C5C",
"j 	c #8E8E8E",
"k 	c #E7E7E7",
"l 	c #8B8B8B",
"m 	c #E8E8E8",
"n 	c #BEBEBE",
"o 	c #C0C0C0",
"p 	c #5B5B5B",
"q 	c #898989",
"r 	c #000000",
"s 	c #5A5A5A",
"t 	c #868686",
"u 	c #E9E9E9",
"v 	c #C1C1C1",
"w 	c #595959",
"x 	c #838383",
"y 	c #B0B0B0",
"z 	c #EAEAEA",
"A 	c #585858",
"B 	c #808080",
"C 	c #C2C2C2",
"D 	c #EBEBEB",
"E 	c #575757",
"F 	c #ECECEC",
"G 	c #555555",
"H 	c #C3C3C3",
"I 	c #EDEDED",
"J 	c #545454",
"K 	c #777777",
"L 	c #EEEEEE",
"M 	c #525252",
"N 	c #737373",
"O 	c #C4C4C4",
"P 	c #EFEFEF",
"Q 	c #505050",
"R 	c #707070",
"S 	c #F0F0F0",
"T 	c #F7F7F7",
"U 	c #4E4E4E",
"V 	c #6D6D6D",
"W 	c #F1F1F1",
"X 	c #4C4C4C",
"Y 	c #6A6A6A",
"Z 	c #C6C6C6",
"` 	c #F2F2F2",
" .	c #4B4B4B",
"..	c #666666",
"+.	c #B1B1B1",
"@.	c #F4F4F4",
"#.	c #F3F3F3",
"$.	c #C7C7C7",
"%.	c #606060",
"&.	c #F5F5F5",
"*.	c #F6F6F6",
"=.	c #C8C8C8",
"-.	c #565656",
";.	c #535353",
">.	c #4F4F4F",
",.	c #515151",
"'.	c #333333",
"                                                                ",
"                                                                ",
"          . . + @ + . # $ % & * = - ; > , ' ) ! ~ { {           ",
"        # ] ] ^ / ^ ] ] ] ] ( ( ( _ _ _ / / / : : : < [         ",
"        $ ] } | 1 2 3 3 4 5 5 5 6 6 6 6 7 7 7 7 7 6 < 8         ",
"        9 ^ | 0 1 a 4 4 5 5 6 6 7 7 7 b b b b b b 7 < 8         ",
"        c ^ 0 3 d a 5 e f f f f g g g g g g g h 2 b < i         ",
"        j ] 3 3 } k 6 6 7 7 b b 2 2 2 a a a a a a 2 < i         ",
"        l ] 3 4 | m 6 n g g g g e e e e e e e o k a < p         ",
"        q ] 4 5 0 m 7 r r 2 a a k k k m m m m m m m < s         ",
"        t ] 5 6 0 u b r r e e e n n n n n n n v u u < w         ",
"        x ] 5 y 5 z 2 r r k m m u u u z z z z z z z < A         ",
"        B ( 6 a 4 z a r r n n n h h h h h h h C D D < E         ",
"        ; ( 7 b 5 z a r r u u z D D D F F F F F F F < G         ",
"        > ( 7 b 5 D k r r n h h h h h o o o o H I I < J         ",
"        K _ b 2 5 F m r r z D F F I I L L L L L L L < M         ",
"        N _ b 2 5 F m r r h h o o o o v v v v O P P < Q         ",
"        R _ 2 a 6 I u r r F I I L P P S S S S S S S T U         ",
"        V _ 2 a 6 I u r r F I L P S S W W W W W W S T X         ",
"        Y / a k 7 I z r r o o v v v C C C C H Z ` W T  .        ",
"        ../ a +.2 I z r r r r r r r r r r @.@.#.#.` T  .        ",
"        [ / a z 7 I D r r r r r r r r r r H H $.@.#.T  .        ",
"        %.: a k b L D F I L P S W ` #.@.&.*.*.&.&.@.T  .        ",
"        8 : a m b L D H o o v C C H H H O O O =.&.@.T  .        ",
"        w : k m b L D F I P S W ` #.@.&.*.T < T *.&.T  .        ",
"        -.< k m b L D H o v v C C H H $.T < < T *.&.T  .        ",
"        ;.< a m b L D F I L S W ` #.@.&.*.T T *.&.@.T  .        ",
"        >.< a m b L D F I L P S ` #.@.&.&.*.*.*.&.@.T  .        ",
"        ,.T *.*.#.< T T T T T T T T T T T T T T T T T ,.        ",
"          -.-.-.-.-.-.-.-.-.-.-.-.-.-.-.-.-.-.-.-.-.E '.        ",
"                                                                ",
"                                                                "};
