/* XPM */
static char * text_x_cpp_xpm[] = {
"32 32 142 2",
"  	c None",
". 	c #999999",
"+ 	c #9C9C9C",
"@ 	c #9E9E9E",
"# 	c #969696",
"$ 	c #939393",
"% 	c #8F8F8F",
"& 	c #8C8C8C",
"* 	c #888888",
"= 	c #848484",
"- 	c #818181",
"; 	c #7D7D7D",
"> 	c #7A7A7A",
", 	c #767676",
"' 	c #727272",
") 	c #6F6F6F",
"! 	c #6B6B6B",
"~ 	c #686868",
"{ 	c #646464",
"] 	c #FDFDFD",
"^ 	c #FEFEFE",
"/ 	c #FAFAFA",
"( 	c #FCFCFC",
"_ 	c #FBFBFB",
": 	c #F9F9F9",
"< 	c #F8F8F8",
"[ 	c #636363",
"} 	c #DCDCDC",
"| 	c #DDDDDD",
"1 	c #DADADA",
"2 	c #E5E5E5",
"3 	c #DFDFDF",
"4 	c #E0E0E0",
"5 	c #E1E1E1",
"6 	c #E2E2E2",
"7 	c #E3E3E3",
"8 	c #5D5D5D",
"9 	c #929292",
"0 	c #DEDEDE",
"a 	c #E6E6E6",
"b 	c #E4E4E4",
"c 	c #909090",
"d 	c #DBDBDB",
"e 	c #BDBDBD",
"f 	c #BBBBBB",
"g 	c #BCBCBC",
"h 	c #BFBFBF",
"i 	c #5C5C5C",
"j 	c #8E8E8E",
"k 	c #E7E7E7",
"l 	c #8B8B8B",
"m 	c #E8E8E8",
"n 	c #BEBEBE",
"o 	c #C0C0C0",
"p 	c #5B5B5B",
"q 	c #898989",
"r 	c #5A5A5A",
"s 	c #868686",
"t 	c #E9E9E9",
"u 	c #B9B9B9",
"v 	c #353535",
"w 	c #111111",
"x 	c #030303",
"y 	c #080808",
"z 	c #202020",
"A 	c #4D4D4D",
"B 	c #949494",
"C 	c #C1C1C1",
"D 	c #595959",
"E 	c #838383",
"F 	c #B0B0B0",
"G 	c #EAEAEA",
"H 	c #CFCFCF",
"I 	c #303030",
"J 	c #000000",
"K 	c #585858",
"L 	c #808080",
"M 	c #262626",
"N 	c #141414",
"O 	c #717171",
"P 	c #A6A6A6",
"Q 	c #B7B7B7",
"R 	c #A0A0A0",
"S 	c #737373",
"T 	c #2B2B2B",
"U 	c #C2C2C2",
"V 	c #EBEBEB",
"W 	c #575757",
"X 	c #8A8A8A",
"Y 	c #1D1D1D",
"Z 	c #D4D4D4",
"` 	c #ECECEC",
" .	c #555555",
"..	c #3B3B3B",
"+.	c #787878",
"@.	c #C3C3C3",
"#.	c #EDEDED",
"$.	c #545454",
"%.	c #777777",
"&.	c #D3D3D3",
"*.	c #EEEEEE",
"=.	c #525252",
"-.	c #C4C4C4",
";.	c #EFEFEF",
">.	c #505050",
",.	c #707070",
"'.	c #D5D5D5",
").	c #F0F0F0",
"!.	c #F7F7F7",
"~.	c #4E4E4E",
"{.	c #6D6D6D",
"].	c #959595",
"^.	c #F1F1F1",
"/.	c #4C4C4C",
"(.	c #6A6A6A",
"_.	c #181818",
":.	c #C6C6C6",
"<.	c #F2F2F2",
"[.	c #4B4B4B",
"}.	c #666666",
"|.	c #B1B1B1",
"1.	c #2D2D2D",
"2.	c #1A1A1A",
"3.	c #D1D1D1",
"4.	c #CCCCCC",
"5.	c #373737",
"6.	c #F4F4F4",
"7.	c #F3F3F3",
"8.	c #AEAEAE",
"9.	c #C7C7C7",
"0.	c #606060",
"a.	c #414141",
"b.	c #0A0A0A",
"c.	c #292929",
"d.	c #F6F6F6",
"e.	c #F5F5F5",
"f.	c #C8C8C8",
"g.	c #565656",
"h.	c #535353",
"i.	c #4F4F4F",
"j.	c #515151",
"k.	c #333333",
"                                                                ",
"                                                                ",
"          . . + @ + . # $ % & * = - ; > , ' ) ! ~ { {           ",
"        # ] ] ^ / ^ ] ] ] ] ( ( ( _ _ _ / / / : : : < [         ",
"        $ ] } | 1 2 3 3 4 5 5 5 6 6 6 6 7 7 7 7 7 6 < 8         ",
"        9 ^ | 0 1 a 4 4 5 5 6 6 7 7 7 b b b b b b 7 < 8         ",
"        c ^ 0 3 d a 5 e f f f f g g g g g g g h 2 b < i         ",
"        j ] 3 3 } k 6 6 7 7 b b 2 2 2 a a a a a a 2 < i         ",
"        l ] 3 4 | m 6 n g g g g e e e e e e e o k a < p         ",
"        q ] 4 5 0 m 7 b 2 2 a a k k k m m m m m m m < r         ",
"        s ] 5 6 0 t b h u , v w x y z A B n n C t t < D         ",
"        E ] 5 F 5 G 2 H I J J J J J J J J G G G G G < K         ",
"        L ( 6 a 4 G 5 M J N O P f Q R S T h h U V V < W         ",
"        ; ( 7 b 5 G X J Y Z t G V V V ` ` ` ` ` ` ` <  .        ",
"        > ( 7 b 5 V ..J +.n h h h h h o o o o @.#.#.< $.        ",
"        %._ b 2 5 ` w J &.G V ` ` #.#.*.*.*.*.*.*.*.< =.        ",
"        S _ b 2 5 ` x J g h h o o o o C C C C -.;.;.< >.        ",
"        ,._ 2 a 6 #.w J '.` #.#.*.;.;.).).).).).).).!.~.        ",
"        {._ 2 a 6 #...J ].` #.*.;.).).^.^.^.^.^.^.).!./.        ",
"        (./ a k 7 #.& J _.F o C C C U U U U @.:.<.^.!.[.        ",
"        }./ a |.2 #.b 1.J 2.j 3.V m 4.9 5.6.6.7.7.<.!.[.        ",
"        [ / a G 7 #.V 8.M J J J J J J J J @.@.9.6.7.!.[.        ",
"        0.: a k b *.V ` m $ a.N x b.c.{ h d.d.e.e.6.!.[.        ",
"        8 : a m b *.V @.o o C U U @.@.@.-.-.-.f.e.6.!.[.        ",
"        D : k m b *.V ` #.;.).^.<.7.6.e.d.!.< !.d.e.!.[.        ",
"        g.< k m b *.V @.o C C U U @.@.9.!.< < !.d.e.!.[.        ",
"        h.< a m b *.V ` #.*.).^.<.7.6.e.d.!.!.d.e.6.!.[.        ",
"        i.< a m b *.V ` #.*.;.).<.7.6.e.e.d.d.d.e.6.!.[.        ",
"        j.!.d.d.7.< !.!.!.!.!.!.!.!.!.!.!.!.!.!.!.!.!.j.        ",
"          g.g.g.g.g.g.g.g.g.g.g.g.g.g.g.g.g.g.g.g.g.W k.        ",
"                                                                ",
"                                                                "};
