/* XPM */
static char * text_x_txt_xpm[] = {
"32 32 106 2",
"  	c None",
". 	c #999999",
"+ 	c #9C9C9C",
"@ 	c #9E9E9E",
"# 	c #969696",
"$ 	c #939393",
"% 	c #8F8F8F",
"& 	c #8C8C8C",
"* 	c #888888",
"= 	c #848484",
"- 	c #818181",
"; 	c #7D7D7D",
"> 	c #7A7A7A",
", 	c #767676",
"' 	c #727272",
") 	c #6F6F6F",
"! 	c #6B6B6B",
"~ 	c #686868",
"{ 	c #646464",
"] 	c #FDFDFD",
"^ 	c #FEFEFE",
"/ 	c #FAFAFA",
"( 	c #FCFCFC",
"_ 	c #FBFBFB",
": 	c #F9F9F9",
"< 	c #F8F8F8",
"[ 	c #636363",
"} 	c #DCDCDC",
"| 	c #DDDDDD",
"1 	c #DADADA",
"2 	c #E5E5E5",
"3 	c #DFDFDF",
"4 	c #E0E0E0",
"5 	c #E1E1E1",
"6 	c #E2E2E2",
"7 	c #E3E3E3",
"8 	c #5D5D5D",
"9 	c #929292",
"0 	c #DEDEDE",
"a 	c #E6E6E6",
"b 	c #E4E4E4",
"c 	c #909090",
"d 	c #DBDBDB",
"e 	c #BDBDBD",
"f 	c #BBBBBB",
"g 	c #BCBCBC",
"h 	c #BFBFBF",
"i 	c #5C5C5C",
"j 	c #8E8E8E",
"k 	c #E7E7E7",
"l 	c #8B8B8B",
"m 	c #E8E8E8",
"n 	c #BEBEBE",
"o 	c #C0C0C0",
"p 	c #5B5B5B",
"q 	c #898989",
"r 	c #5A5A5A",
"s 	c #868686",
"t 	c #E9E9E9",
"u 	c #C1C1C1",
"v 	c #595959",
"w 	c #838383",
"x 	c #B0B0B0",
"y 	c #EAEAEA",
"z 	c #585858",
"A 	c #808080",
"B 	c #C2C2C2",
"C 	c #EBEBEB",
"D 	c #575757",
"E 	c #ECECEC",
"F 	c #555555",
"G 	c #C3C3C3",
"H 	c #EDEDED",
"I 	c #545454",
"J 	c #777777",
"K 	c #EEEEEE",
"L 	c #525252",
"M 	c #737373",
"N 	c #C4C4C4",
"O 	c #EFEFEF",
"P 	c #505050",
"Q 	c #707070",
"R 	c #F0F0F0",
"S 	c #F7F7F7",
"T 	c #4E4E4E",
"U 	c #6D6D6D",
"V 	c #F1F1F1",
"W 	c #4C4C4C",
"X 	c #6A6A6A",
"Y 	c #C6C6C6",
"Z 	c #F2F2F2",
"` 	c #4B4B4B",
" .	c #666666",
"..	c #B1B1B1",
"+.	c #F3F3F3",
"@.	c #F4F4F4",
"#.	c #C7C7C7",
"$.	c #606060",
"%.	c #F5F5F5",
"&.	c #F6F6F6",
"*.	c #C8C8C8",
"=.	c #565656",
"-.	c #535353",
";.	c #4F4F4F",
">.	c #515151",
",.	c #333333",
"                                                                ",
"                                                                ",
"          . . + @ + . # $ % & * = - ; > , ' ) ! ~ { {           ",
"        # ] ] ^ / ^ ] ] ] ] ( ( ( _ _ _ / / / : : : < [         ",
"        $ ] } | 1 2 3 3 4 5 5 5 6 6 6 6 7 7 7 7 7 6 < 8         ",
"        9 ^ | 0 1 a 4 4 5 5 6 6 7 7 7 b b b b b b 7 < 8         ",
"        c ^ 0 3 d a 5 e f f f f g g g g g g g h 2 b < i         ",
"        j ] 3 3 } k 6 6 7 7 b b 2 2 2 a a a a a a 2 < i         ",
"        l ] 3 4 | m 6 n g g g g e e e e e e e o k a < p         ",
"        q ] 4 5 0 m 7 b 2 2 a a k k k m m m m m m m < r         ",
"        s ] 5 6 0 t b h g e e e n n n n n n n u t t < v         ",
"        w ] 5 x 5 y 2 a a k m m t t t y y y y y y y < z         ",
"        A ( 6 a 4 y a o e n n n h h h h h h h B C C < D         ",
"        ; ( 7 b 5 y a k m t t y C C C E E E E E E E < F         ",
"        > ( 7 b 5 C k u n n h h h h h o o o o G H H < I         ",
"        J _ b 2 5 E m t t y C E E H H K K K K K K K < L         ",
"        M _ b 2 5 E m u h h h o o o o u u u u N O O < P         ",
"        Q _ 2 a 6 H t y C E H H K O O R R R R R R R S T         ",
"        U _ 2 a 6 H t y C E H K O R R V V V V V V R S W         ",
"        X / a k 7 H y B h o o u u u B B B B G Y Z V S `         ",
"         ./ a ..2 H y C E H K O R V Z +.+.@.@.+.+.Z S `         ",
"        [ / a y 7 H C G o o u u B B G G G G G #.@.+.S `         ",
"        $.: a k b K C E H K O R V Z +.@.%.&.&.%.%.@.S `         ",
"        8 : a m b K C G o o u B B G G G N N N *.%.@.S `         ",
"        v : k m b K C E H O R V Z +.@.%.&.S < S &.%.S `         ",
"        =.< k m b K C G o u u B B G G #.S < < S &.%.S `         ",
"        -.< a m b K C E H K R V Z +.@.%.&.S S &.%.@.S `         ",
"        ;.< a m b K C E H K O R Z +.@.%.%.&.&.&.%.@.S `         ",
"        >.S &.&.+.< S S S S S S S S S S S S S S S S S >.        ",
"          =.=.=.=.=.=.=.=.=.=.=.=.=.=.=.=.=.=.=.=.=.D ,.        ",
"                                                                ",
"                                                                "};
