/* XPM */
static char * sciteproj_xpm[] = {
"48 48 213 2",
"  	c None",
". 	c #120607",
"+ 	c #140608",
"@ 	c #110506",
"# 	c #270D0F",
"$ 	c #0B0304",
"% 	c #160709",
"& 	c #19080A",
"* 	c #1C090B",
"= 	c #2C0E11",
"- 	c #150708",
"; 	c #45171B",
"> 	c #2A0E10",
", 	c #100506",
"' 	c #3D1418",
") 	c #3C1417",
"! 	c #331114",
"~ 	c #371216",
"{ 	c #290D10",
"] 	c #1F0A0C",
"^ 	c #230B0E",
"/ 	c #180809",
"( 	c #531B21",
"_ 	c #73353B",
": 	c #050102",
"< 	c #8A5056",
"[ 	c #080203",
"} 	c #5D1F25",
"| 	c #351115",
"1 	c #2D0F12",
"2 	c #1A080A",
"3 	c #301013",
"4 	c #060202",
"5 	c #1E0A0C",
"6 	c #571D22",
"7 	c #0C0405",
"8 	c #7C3F45",
"9 	c #1D090B",
"0 	c #6B2C32",
"a 	c #040101",
"b 	c #B3898D",
"c 	c #200A0C",
"d 	c #8E565C",
"e 	c #4D191F",
"f 	c #0F0506",
"g 	c #49181D",
"h 	c #130607",
"i 	c #1B090A",
"j 	c #030101",
"k 	c #4C191E",
"l 	c #110507",
"m 	c #76383E",
"n 	c #321014",
"o 	c #84494F",
"p 	c #90585D",
"q 	c #67272D",
"r 	c #020000",
"s 	c #83474D",
"t 	c #692930",
"u 	c #581D23",
"v 	c #070203",
"w 	c #3A1317",
"x 	c #7B3E44",
"y 	c #3E1418",
"z 	c #2E0F12",
"A 	c #4B191D",
"B 	c #070202",
"C 	c #A37176",
"D 	c #501A20",
"E 	c #8B5257",
"F 	c #874D53",
"G 	c #E8DADC",
"H 	c #72343A",
"I 	c #A97A7F",
"J 	c #0C0404",
"K 	c #66262C",
"L 	c #91595F",
"M 	c #210B0D",
"N 	c #D5BBBD",
"O 	c #090303",
"P 	c #F4EDEE",
"Q 	c #793B41",
"R 	c #E6D6D7",
"S 	c #8D555A",
"T 	c #E1CFD1",
"U 	c #BF9A9E",
"V 	c #42161A",
"W 	c #0E0405",
"X 	c #6D2E34",
"Y 	c #64242A",
"Z 	c #2F0F13",
"` 	c #311013",
" .	c #5A1E24",
"..	c #A8787D",
"+.	c #BE989C",
"@.	c #FDFCFC",
"#.	c #44161B",
"$.	c #5B1E24",
"%.	c #B58B8F",
"&.	c #B68C90",
"*.	c #260C0F",
"=.	c #240C0E",
"-.	c #77393F",
";.	c #0A0304",
">.	c #541C21",
",.	c #361215",
"'.	c #220B0D",
").	c #7A3D43",
"!.	c #996469",
"~.	c #F9F5F5",
"{.	c #976166",
"].	c #CAAAAD",
"^.	c #E4D3D5",
"/.	c #010000",
"(.	c #170709",
"_.	c #CCAEB1",
":.	c #CBACAF",
"<.	c #955F65",
"[.	c #401519",
"}.	c #4F1A1F",
"|.	c #0D0405",
"1.	c #020001",
"2.	c #AC7E82",
"3.	c #A06E73",
"4.	c #C6A4A7",
"5.	c #C4A2A5",
"6.	c #250C0F",
"7.	c #F7F2F3",
"8.	c #A5757A",
"9.	c #BC969A",
"0.	c #D3B9BB",
"a.	c #3F1519",
"b.	c #A47378",
"c.	c #381216",
"d.	c #74363C",
"e.	c #A7777B",
"f.	c #602026",
"g.	c #511B20",
"h.	c #6F3036",
"i.	c #F0E6E7",
"j.	c #E3D1D3",
"k.	c #6C2D33",
"l.	c #81454B",
"m.	c #E0CDCE",
"n.	c #945E63",
"o.	c #65252B",
"p.	c #612127",
"q.	c #48181C",
"r.	c #C7A6A9",
"s.	c #7E4248",
"t.	c #D1B5B7",
"u.	c #B2878B",
"v.	c #BA9296",
"w.	c #6E2F35",
"x.	c #854A50",
"y.	c #EBDFE0",
"z.	c #C29EA1",
"A.	c #DECACC",
"B.	c #FAF7F7",
"C.	c #7F4349",
"D.	c #47171C",
"E.	c #925B60",
"F.	c #632329",
"G.	c #622228",
"H.	c #8C5359",
"I.	c #AA7C80",
"J.	c #9B676C",
"K.	c #9D696E",
"L.	c #DDC8CA",
"M.	c #280D10",
"N.	c #DCC6C8",
"O.	c #9E6B70",
"P.	c #B78E92",
"Q.	c #986268",
"R.	c #43161A",
"S.	c #EEE4E5",
"T.	c #FCFAFA",
"U.	c #C3A0A3",
"V.	c #82464C",
"W.	c #894F54",
"X.	c #E7D8D9",
"Y.	c #561C22",
"Z.	c #9A666B",
"`.	c #5E1F25",
" +	c #F6F0F0",
".+	c #EADDDE",
"++	c #D7BFC2",
"@+	c #864C51",
"#+	c #AD7F84",
"$+	c #6A2B31",
"%+	c #703138",
"&+	c #D2B7B9",
"*+	c #391316",
"=+	c #7D4147",
"-+	c #DAC4C6",
";+	c #68282F",
">+	c #D6BDC0",
",+	c #B18589",
"'+	c #AE8186",
")+	c #BB9498",
"!+	c #935C62",
"~+	c #EDE1E2",
"{+	c #A27075",
"]+	c #F3EBEC",
"^+	c #B89094",
"/+	c #C8A8AB",
"(+	c #C09C9F",
"_+	c #CFB2B5",
":+	c #2B0E11",
"<+	c #9F6C71",
"[+	c #D9C1C4",
"}+	c #713339",
"|+	c #783A40",
"                                      . + @ + + # $ + $ %                                       ",
"                                & * = - ; > , ' ) * ! ~ { ] ^ ,                                 ",
"                          $ . ) / ( - _ : < [ _ [ } = | 1 2 = 3 % / 4                           ",
"                        5 - 6 7 8 9 ~ 0 a b [ c d a e ; f g | h # { i .                         ",
"                    j k l m @ n o j p q r s t . u o v w x * [ y g 7 & z * a                     ",
"                  a A / A _ B C D 4 E F h z G % : H I J : K L n 4 ! D { f > &                   ",
"                4 M u : N O 4 P n j Q R 4 r S T / r ~ U V @ W X Y - Z `  .M O a                 ",
"              i a ..4 y +.a [ @.#.c 9 @.$.* h %.&.* *.=.b -.;.$ $.s >.$ j > } ,.a               ",
"            '.2 ; Q j ).!.4 : ~.{.: [ ].^.;./.(._.:.f /.[ <.&.[.r r M o }.i |.h }.,             ",
"          j _ 1.2.*.a 3.L v 3 4.5.[ n 6.7.8.@ h - 9.0.a.c / 6.b.).M { c.,.-.A O + f B           ",
"        O 1 c.B 7.] ;.I &.- j d.@.u r j E @._ /.a = U G y /.B > p e.f.4 r B g.h.}.M r :         ",
"        W E $ M i.O 1.!.j.j : g ~.%.j M , e.@.k.& J : l.m.n.V W r , d.S o.p.q.;.{ k.c.:         ",
"      a.a e.j ~ R 1.$ d @.6.(.v b.@.p j /.f m.@.u /.|.| Q r.2.M 4 (.[.g.l.s.^ r r , ` t [       ",
"    4 a.i L r q @.J ~ | @.C j j ) @.^.+ & '.% t.P S w B /., u.v.{.Z O r j ` s w.t ).n ;.9 [     ",
"    c i g x.: a.@.#.j % y.j.[ X |.H @.z.y r /.= A.B.C.: . D.k.o...E.*.$ =.6 #.$.8 F.+ r r :     ",
"    g.O G.H.: / @.( j w s @.x f /.'.t.@.E 7 ! h ;.I.i.U D 7 /.r i J.K.<.D.W r r O [.-.>.W 1.    ",
"  + Q a u E.r 3 y.3.% $ ] ~.L.O c M.5 N.@.O.[ /.B #.8.L.&.> $ q.D.Z z F H.q.;.@ ` g.Z k 8 ; :   ",
"  2 s r A P.J 9 Q.B.h r 6 8.@.b.5 r a R.S.T.-.% a.f r V :.U.O.. r /.1.f V.W.x.n.Z *.4 r l K 3   ",
"  ^ E.1.D.^.c.j  .@.u / . $ X.7.V 4 > = =.i.T.C a /.- g.Y.Z.%.d 5 ` f.f.=.9 `.l.H M.j r a W z   ",
"{ h %.: (. +3 j c..+++y 1.v W.@..+>.(./.7 V..+ +@+f.' 4 r O p e.J.F $ r /.r a ^ Q s.H c.S Y - j ",
"M.;.3.h r 0.h.c - _ @.`.j t [ p @.r.[ & G.: 5 j.^.#+W j 1 Q y # x.{.s ,.Z G.).q Y.e $+x.H.a.4 j ",
"M.f Z.> j e._.[.r > 7..+g (./.}.N @.z.%+v /.} u 2.&+b Z.Z j /.a # p {.S L *+[ r r r 1.5 =+-+5.@ ",
"*.* t $+W | ~.A 1.g.%+@.0.j '.;+f &+T.8.[ ' i /.@ 3.z.P.g.+ p.L F./ @ p.< W.`.i / *.{ M * ~ v.a.",
"M *.q.%.i j ++8.* R.a N B.k f.4 : X >+P _.^ r @ D.% g ,+'+)+u a /.1.h ' <.8.!+!.%.O.F.k h % A c ",
"[ f.M ~+c.j )+@.,++ O =+P B.>./.c.] & A.G I.# a.4 j Z W.L I.{+u p.O.a.[.M , 3 {+R ]+b.{ a 1.r r ",
"[ m l !+$+. Y.N.j.a / l f.@.N > R./.] Y.z.^.-+i $ ; z 1.;.S 9.)+^+[.j r /.j ;.f $+/+(+,+d ` B 1.",
"- $+5 3 _+! ! Y.@.q >.a , (+@.G / a g j c N. +y.{+7 /.Z l.1 ! U ~+G P.=+X E V.%+o S O.Q.S < Q h ",
"5 M.M.[ &.)., - 4.P -.r i + 8.T.9.[.f a ( |.Z.]+i.{.x q.: j :+-.x.&.+.P.s.i 1.1.r r r j 7 ^ A . ",
"] [ w.W ) v., . 3 A.].[ } a 5 5.P N.|.M.h : t D :.0.,+^ { <+6 ;.r 4 g O.!.p Y M.* J a r r r 1.a ",
"  & f.M j n.Y.. W w [+F g.r =.+ K.N ..Y r ~ h W =+H.2.I p |.: = D < {+@+Y X }+X t o <.* @ j r   ",
"  M / ;+4 * I.= , $ <+4.o r M.a 1 {.v.3.| g a =.[ =.x.F F ).K.c.* 1.r /.r a / #. .6 >.>.R.l ;.  ",
"  / ;.$.& r $.Q.c 4 y m %.( ` r = [ G.{+<+e | + 5 $+j G.$+H w.Y.~ g V.Q q f.A n ^ 5 ,.R.; D.W   ",
"    :+f o.1.: C.H j ` : W.3.V.: % 4 :+1 @+F l.- k 4 _ '.W X q `.u t *+h |.& :+a.H.z h f |.@     ",
"    (.7 ~ 6.r , H.c.> a :+s !+Y.'.f { j q o.d.C.3 Y |.Z z : : ,.;+q.#.c.2 O 1.r 1.O c { B 1.    ",
"    4 6.a $.$ r { < #.- ;.a.6 o o.:+% @ :+/ g 0 G.#.,.W k 0 e A ,.c M.,.,.~ = % O a r a % :     ",
"      |.+ h $.a j $+Q.k.j ' B g.|+}+. '.& / ^ = u }.k 6 M 4 | k ) + f 4 l '.:+:+:+:+^ M $       ",
"        ] B ^ ' j % ;+'+f.: ,.: `.w.} #./ 5 6.R.'.=.6 ) [.q.^ |.* 6.Y.m g.[ a ;.. M.=..         ",
"        : ^ v ] ! j { #.9.%+f M.4 e k ( e =.5 & '.Z c % { 3 1 = ^ . r : l 5 , a r [ 4 a         ",
"          4 ^ O =.~ j Z *+#+x.h =.7 2 D.R.V q.h A @ M.5 = g.e 6.'.:+! W a j > Z 1.r 1.          ",
"            [ 2 @ i ` : |.f }+C.% W * @ & ` Z 3 Z :+9 M.:+|./ K a.- * * * & % > f 4             ",
"              $ M 4 . 3 B r a >  .k / * . @ '.{ =.*.2 ` $ ' 5 1.> M j 4 = % W l :               ",
"                : i ;.O :+W 1.r - > *.& / ^ (.$ M 1 2 2 * ;.g % r / l r W |.r r                 ",
"                  v h f , & / (.M [ . 5 / M O > [ ~ @ M f h - - |.h h 4 ;.j j                   ",
"                    : O f : f > c + h / $ - - f 4 [ l W : * 4 * f f h |.4 a                     ",
"                        B |.[ a f % $ * h 4 4 , . |.;.: |.O r c r j : 1.                        ",
"                          4 B W 4 r |.h |.v Z [ 4 / [ W - l f ;.a j :                           ",
"                                a B a 1.j $ / + 2 4 a 4 r a B j                                 ",
"                                      : : a a j a : a : :                                       "};
